<?xml version="1.0" encoding="utf-8"?>
<!-- Generator: Adobe Illustrator 25.3.1, SVG Export Plug-In . SVG Version: 6.00 Build 0)  -->
<svg version="1.1" id="Layer_1" xmlns="http://www.w3.org/2000/svg" xmlns:xlink="http://www.w3.org/1999/xlink" x="0px" y="0px"
	 viewBox="0 0 745.7 477.1" style="enable-background:new 0 0 745.7 477.1;" xml:space="preserve">
<style type="text/css">
	.st0{stroke:#000000;stroke-width:4;stroke-miterlimit:10;}
</style>
<g>
	<path class="st0" d="M91.8,2c2.8,0,5.9,0.3,9.1,1c15.9,3.2,29.9,10.5,41.5,17.1c24.5,14.1,48.4,31.6,75.2,55.2
		c2.3,2,4.2,2.8,6.4,2.8c1.4,0,2.8-0.3,4.6-1.1c35.1-14.8,73.4-23.9,113.8-27.2c11.5-0.9,23-1.4,34.2-1.4
		c37.4,0,74.2,5.2,109.4,15.5c12,3.5,23.5,7.8,33.2,11.6c1.7,0.7,3.2,1,4.5,1c2.9,0,5-1.5,6.7-3c26.6-23.1,50-40.1,73.5-53.5
		c14.5-8.3,27.1-14.3,41.2-16.9c3.5-0.6,6.6-1,9.5-1c1.2,0,2.3,0.1,3.4,0.2c11.9,1.2,19.7,9.3,21.9,22.8c2.8,17-0.7,33.3-4.5,47
		c-8.3,29.8-20.6,59.1-36.6,87c-1,1.7-0.8,4.5,0.4,6.1c10.5,15.3,18.1,30.2,23.1,45.3c1.1,3.5,3.5,3.9,5.4,3.9c0.3,0,0.7,0,1.2,0
		c3.5-0.2,7.1-0.4,10.6-0.4c18,0,35.6,3.2,52.4,9.7c-16.2-2.3-35.1-4.3-54.3-4.3c-3.1,0-6.3,0.1-9.4,0.2l-2.3,0.1l0.4,2.3
		c0.3,1.6,0.6,3.2,0.8,4.8c0.8,4.8,1.6,9.3,2.6,13.8c0.6,2.6,5.1,3.5,6.2,3.6c15.8,1.2,28,4.2,38.6,9.4c3.9,1.9,7.7,4,11.4,6.2
		c-6.1-2.1-12.3-4.3-18.5-6c-7.7-2.2-15.7-3.9-23.5-5.6c-3.4-0.7-7-1.5-10.5-2.3l-2-0.5l-0.4,2c-0.1,0.6-0.2,1-0.3,1.3
		c-0.1,0.6-0.3,1.1-0.2,1.7c1.5,23.4-1.8,46-9.7,67.2c-7.6,20.4-19.8,40.1-36.1,58.7c-28,31.8-63.8,55.8-109.6,73.5
		c-43.5,16.8-89.8,25.3-137.7,25.3c-11,0-22.2-0.4-33.4-1.3c-29.2-2.3-57.1-7.5-83-15.4c-27-8.3-52.7-19.8-76.3-34.3
		c-40.6-25-69.1-55-87.1-91.9c-12.5-25.7-18-52.9-16.1-81.1c0-0.5,0-0.9,0-1.5c0-0.3,0-0.7,0-1.1v-2.1l-2.1,0.1
		c-19.8,1.1-37.9,6.5-56.9,13.5c2.8-1.7,5.7-3.4,8.7-4.9c12.9-6.7,27.8-10.3,45.5-11c4.1-0.2,5.9-1.8,6.3-5.7
		c0.4-3.5,1.1-7,1.9-10.7c0.3-1.7,0.7-3.4,1-5.2l0.4-2.2l-2.3-0.2c-5.3-0.4-10.8-0.5-16.3-0.5c-18.8,0-37,2.1-53.4,4.6
		c3.4-1.3,6.8-2.5,10.2-3.6c12.9-4.2,26.7-6.3,41-6.3c5.1,0,10.3,0.3,15.5,0.8c0.7,0.1,1.3,0.1,1.9,0.1c3.8,0,6-1.7,7.4-5.8
		c4.2-12.8,10.6-25.7,19.5-39.4c1-1.5,1.8-4.6,0.5-6.5C97,143.2,87.9,120.9,79.8,99.9c-5.6-14.2-12-32.7-13.8-52.1
		c-0.8-8.2-0.6-15.8,0.4-22.7c1.1-7.5,3.9-13.4,8.3-17.3C79,4,84.7,2,91.8,2 M415.7,315.6c-14.8,0-27.6-5.8-39.2-17.7l-1.1-1.1
		l-1.4,0.8c-2.2,1.3-4.4,2.7-6.5,3.9c-4.7,2.8-9.1,5.5-13.6,7.9c-5.9,3.1-11.8,4.7-17.6,4.7c-4.5,0-9.1-1-13.6-2.9
		c-1.5-0.6-3-1.2-4.5-1.8c-2.1-0.8-4.3-1.6-6.3-2.6c-5.4-2.5-10.9-5.2-16.2-7.8c-2.2-1.1-4.4-2.2-6.6-3.2l-0.9-0.4l-0.9,0.5l-1,0.6
		l-1.8,1l1,1.8c0.4,0.6,0.7,1.3,1,2.1c0.8,1.8,1.7,3.6,3.1,5.1c1.6,1.7,3.4,3.1,5.2,4.5c1.5,1.2,2.9,2.3,4.2,3.6
		c1.4,1.4,2.4,3,2.6,4.2c2.7,19.3,7.3,44.3,19.8,67c2.8,5,6,9.9,9.2,14.7c1.4,2.2,2.9,4.4,4.3,6.6l1,1.6l1.6-0.9l3.1-1.7l2.8-1.6
		c0,0.3,0.1,0.5,0.1,0.8c0.4,3.1,0.7,6.1,1.2,9c0.1,0.9,0.6,3.1,2.1,4.5c8.5,7.9,20,12.4,31.5,12.4c10.8,0,21.1-4,29-11.1
		c1.8-1.7,2.7-4.3,2.9-6.3c0.2-2.6,0.2-5.3,0.2-8.1c0-0.1,0-0.2,0-0.2l6.6,3.7l1.4,0.8l1.1-1.2c0.3-0.3,0.5-0.6,0.8-0.9
		c0.5-0.6,1-1.1,1.5-1.7c18.5-24.2,28.9-53,30.9-85.6c0.3-5.2,1.6-8.5,4.4-11.4c3.4-3.5,4.2-7.7,2.2-12.3l-1.2-2.9l-2.1,2.3
		c-11.9,13.1-24.5,19.3-39.5,19.5C416.1,315.6,415.9,315.6,415.7,315.6 M91.8,0c-15.1,0-25,8.6-27.4,24.8C63.3,32.4,63.3,40.3,64,48
		c1.7,18.1,7.2,35.4,13.7,52.4c8.5,22,17.5,43.9,30.7,64c0.6,1,0.2,3.2-0.5,4.3c-8.2,12.6-15.1,25.7-19.7,39.8
		c-1.1,3.4-2.6,4.4-5.5,4.4c-0.5,0-1.1,0-1.7-0.1c-5.3-0.5-10.5-0.8-15.7-0.8c-14.1,0-28,2-41.6,6.4c-8,2.6-15.8,5.9-23.7,8.8
		c0.1,0.3,0.2,0.6,0.4,1c22.3-3.8,44.6-6.8,67.2-6.8c5.4,0,10.8,0.2,16.2,0.5c-1.1,5.9-2.4,10.9-3,16c-0.3,2.9-1.4,3.8-4.4,4
		c-16.3,0.7-32,3.8-46.3,11.2c-7.4,3.8-14.4,8.5-21.6,12.7c0.2,0.4,0.4,0.7,0.6,1.1c22.6-8.8,45.3-17.2,70.2-18.6c0,1.3,0,1.9,0,2.5
		c-1.9,28.7,3.6,56,16.3,82.1c19.2,39.4,49.8,69.3,87.9,92.7c48.7,29.9,102.6,45.5,160.2,50c11.2,0.9,22.4,1.3,33.5,1.3
		c47.5,0,93.7-8.2,138.4-25.4c42.8-16.5,80.5-40.2,110.4-74c32.5-36.9,49.4-78.9,46.3-127.4c0-0.5,0.2-1,0.5-2.5
		c11.4,2.6,22.8,4.8,33.8,7.9c11.1,3.2,21.8,7.3,32.7,11c0.2-0.3,0.4-0.6,0.6-0.9c-8.3-4.7-16.3-9.8-24.8-14
		c-12.3-6-25.6-8.5-39.3-9.6c-1.6-0.1-4.2-1.1-4.4-2.1c-1.4-6-2.3-12.1-3.4-18.5c3.1-0.1,6.2-0.2,9.3-0.2c23.1,0,45.8,2.8,68.5,6.4
		c-1.2-0.6-2.3-1.3-3.5-1.8c-20-9.3-41.1-14-63-14c-3.6,0-7.1,0.1-10.7,0.4c-0.4,0-0.7,0-1,0c-1.7,0-2.8-0.5-3.5-2.5
		c-5.4-16.4-13.5-31.5-23.4-45.9c-0.7-1-0.9-3-0.3-4c15.9-27.8,28.3-56.9,36.8-87.5c4.3-15.7,7.2-31.6,4.6-47.9
		C679.4,10.5,670.9,1.6,658,0.3c-1.2-0.1-2.4-0.2-3.6-0.2c-3.3,0-6.6,0.4-9.8,1c-15.2,2.8-28.7,9.6-41.8,17.1
		C576.1,33.5,552,52,529,72c-1.9,1.6-3.5,2.5-5.4,2.5c-1.1,0-2.3-0.3-3.8-0.9c-10.9-4.3-22-8.3-33.3-11.6
		c-36.1-10.5-72.7-15.5-110-15.5c-11.4,0-22.9,0.5-34.4,1.4c-39.7,3.2-77.9,12-114.4,27.4c-1.5,0.6-2.7,0.9-3.8,0.9
		c-1.8,0-3.2-0.8-5-2.3c-23.4-20.6-48.2-39.7-75.6-55.4C130.2,10.8,116.5,4.1,101.2,1C97.9,0.3,94.8,0,91.8,0L91.8,0z M415.7,317.6
		c0.2,0,0.4,0,0.6,0c17-0.2,30-8,41-20.1c1.8,4.2,0.8,7.4-1.8,10.1c-3.5,3.6-4.6,7.7-4.9,12.6c-1.9,30.8-11.2,59.3-30.5,84.5
		c-0.6,0.8-1.3,1.6-2.2,2.5c-3.1-1.7-6-3.3-9.6-5.3c0,4.2,0.2,7.9-0.1,11.5c-0.2,1.7-0.9,3.8-2.2,5c-8,7.3-17.9,10.6-27.7,10.6
		c-11,0-21.9-4.2-30.2-11.9c-0.9-0.8-1.3-2.2-1.5-3.4c-0.6-4.1-1-8.1-1.6-12.7c-2.8,1.6-5.2,2.9-8.6,4.7
		c-4.5-7.1-9.4-13.9-13.4-21.1c-11.4-20.8-16.4-43.3-19.6-66.3c-0.3-1.9-1.7-3.9-3.2-5.3c-2.9-2.9-6.5-5.1-9.4-8
		c-1.8-1.8-2.6-4.4-3.8-6.7c0.3-0.2,0.7-0.4,1-0.6c7.6,3.7,15.2,7.4,22.8,11c3.5,1.6,7.3,2.9,10.9,4.4c4.9,2.1,9.7,3,14.4,3
		c6.3,0,12.5-1.7,18.6-4.9c6.8-3.6,13.2-7.7,20.2-11.9C385.7,310.2,398.9,317.6,415.7,317.6L415.7,317.6z"/>
</g>
</svg>
