<?xml version="1.0" encoding="utf-8"?>
<!-- Generator: Adobe Illustrator 25.3.1, SVG Export Plug-In . SVG Version: 6.00 Build 0)  -->
<svg version="1.1" id="Layer_1" xmlns="http://www.w3.org/2000/svg" xmlns:xlink="http://www.w3.org/1999/xlink" x="0px" y="0px"
	 viewBox="0 0 745.7 477.1" style="enable-background:new 0 0 745.7 477.1;" xml:space="preserve">
<path d="M745.7,227.9c-25.7-4.1-51.5-7.2-77.8-6.3c1.1,6.4,2,12.5,3.4,18.5c0.2,1,2.8,1.9,4.4,2.1c13.7,1.1,27.1,3.6,39.3,9.6
	c8.5,4.2,16.6,9.3,24.8,14c-0.2,0.3-0.4,0.6-0.6,0.9c-10.9-3.7-21.7-7.9-32.7-11c-11-3.1-22.4-5.3-33.8-7.9c-0.3,1.5-0.5,2-0.5,2.5
	c3.1,48.5-13.9,90.5-46.3,127.4c-29.8,33.9-67.5,57.5-110.4,74c-55.2,21.3-112.7,28.8-171.9,24.1c-57.6-4.5-111.5-20.1-160.2-50
	c-38-23.4-68.6-53.3-87.9-92.7c-12.7-26-18.2-53.4-16.3-82.1c0-0.6,0-1.3,0-2.5c-24.9,1.4-47.6,9.8-70.2,18.6
	c-0.2-0.4-0.4-0.7-0.6-1.1c7.2-4.3,14.1-8.9,21.6-12.7c14.4-7.4,30.1-10.5,46.3-11.2c3.1-0.1,4.1-1,4.4-4c0.6-5.1,1.8-10.2,3-16
	c-28.2-1.9-55.8,1.6-83.4,6.3c-0.1-0.3-0.2-0.6-0.4-1c7.9-3,15.7-6.2,23.7-8.8c18.6-6,37.8-7.6,57.3-5.6c4.1,0.4,5.9-0.4,7.2-4.3
	c4.6-14.1,11.5-27.3,19.7-39.8c0.7-1.1,1.2-3.3,0.5-4.3c-13.2-20.1-22.2-41.9-30.7-64C71.2,83.4,65.7,66.1,64,48
	c-0.7-7.7-0.7-15.5,0.4-23.1C67.3,5.4,80.9-3.1,101.2,1c15.3,3.1,28.9,9.8,42.1,17.4c27.4,15.7,52.1,34.8,75.6,55.4
	c2.9,2.6,5.1,3,8.8,1.4c36.5-15.3,74.7-24.1,114.4-27.4c49.1-4,97.3,0.4,144.4,14.1c11.3,3.3,22.4,7.4,33.3,11.6
	c4,1.5,6.2,1,9.2-1.6c23-19.9,47.1-38.5,73.8-53.8c13.1-7.5,26.6-14.3,41.8-17.1c4.4-0.8,9-1.3,13.4-0.8
	c12.9,1.3,21.3,10.2,23.7,24.5c2.7,16.3-0.2,32.2-4.6,47.9c-8.5,30.6-20.9,59.7-36.8,87.5c-0.6,1-0.4,3,0.3,4
	c9.9,14.3,18,29.5,23.4,45.9c0.8,2.5,2.2,2.7,4.5,2.5c25.9-1.8,50.5,2.8,73.8,13.6C743.4,226.6,744.6,227.3,745.7,227.9z M345,401
	c0.6,4.6,1,8.7,1.6,12.7c0.2,1.2,0.7,2.6,1.5,3.4c15.6,14.5,40.9,16.7,57.9,1.3c1.3-1.2,2.1-3.3,2.2-5c0.3-3.6,0.1-7.3,0.1-11.5
	c3.7,2,6.6,3.6,9.6,5.3c0.8-1,1.5-1.7,2.2-2.5c19.3-25.2,28.6-53.7,30.5-84.5c0.3-4.9,1.4-9,4.9-12.6c2.6-2.7,3.6-5.9,1.8-10.1
	c-11,12.1-24,20-41,20.1c-17.1,0.2-30.5-7.2-41.3-18.4c-7.1,4.2-13.5,8.4-20.2,11.9c-10.6,5.6-21.6,6.7-33,1.9
	c-3.6-1.5-7.3-2.8-10.9-4.4c-7.7-3.6-15.2-7.3-22.8-11c-0.3,0.2-0.7,0.4-1,0.6c1.2,2.3,2.1,4.9,3.8,6.7c2.8,2.9,6.4,5.2,9.4,8
	c1.5,1.4,2.9,3.4,3.2,5.3c3.2,23,8.2,45.6,19.6,66.3c4,7.2,8.9,14,13.4,21.1C339.8,403.9,342.2,402.5,345,401z"/>
</svg>
